<?xml version="1.0" standalone="no"?>
<!DOCTYPE svg PUBLIC "-//W3C//DTD SVG 20010904//EN"
 "http://www.w3.org/TR/2001/REC-SVG-20010904/DTD/svg10.dtd">
<svg version="1.0" xmlns="http://www.w3.org/2000/svg"
 width="755.000000pt" height="755.000000pt" viewBox="0 0 755.000000 755.000000"
 preserveAspectRatio="xMidYMid meet">
<metadata>
Created by potrace 1.11, written by Peter Selinger 2001-2013
</metadata>
<g transform="translate(0.000000,755.000000) scale(0.100000,-0.100000)"
fill="#000000" stroke="none">
<path d="M3485 7540 c-501 -41 -977 -174 -1410 -395 -1088 -553 -1839 -1588
-2029 -2797 -42 -270 -55 -710 -27 -958 73 -659 295 -1258 659 -1780 244 -350
594 -699 942 -942 1120 -778 2569 -882 3795 -271 720 358 1323 961 1685 1683
195 389 315 785 377 1240 26 194 26 726 0 920 -119 882 -487 1625 -1103 2232
-603 595 -1349 952 -2199 1053 -157 19 -539 27 -690 15z m465 -270 c418 -26
828 -123 1196 -285 1163 -512 1960 -1625 2074 -2895 13 -148 13 -472 0 -620
-114 -1273 -916 -2391 -2084 -2905 -649 -285 -1396 -363 -2091 -219 -1362 283
-2437 1372 -2704 2737 -50 253 -65 414 -65 687 0 282 16 443 69 705 176 865
674 1632 1400 2154 517 372 1161 602 1793 640 199 12 230 12 412 1z"/>
<path d="M4917 6689 c-9 -6 -29 -33 -43 -62 -15 -28 -49 -83 -76 -121 -40 -57
-48 -77 -46 -106 3 -30 9 -38 42 -54 36 -18 45 -18 118 -6 108 17 160 15 209
-11 56 -28 134 -110 149 -155 38 -114 -69 -236 -235 -269 -40 -8 -280 -252
-434 -440 -183 -224 -269 -345 -423 -595 -207 -336 -399 -644 -408 -653 -9
-10 -39 32 -346 488 -310 461 -480 674 -759 951 -148 147 -205 190 -259 197
-118 17 -226 118 -226 213 0 53 25 97 91 158 74 69 110 81 208 71 110 -12 157
-10 186 9 51 34 46 67 -24 159 -27 35 -63 89 -81 120 -41 73 -59 74 -137 7
-32 -27 -139 -111 -238 -187 -246 -186 -352 -279 -545 -472 -167 -167 -308
-328 -361 -411 -45 -68 -65 -134 -98 -312 -34 -186 -61 -273 -136 -439 -122
-269 -212 -576 -222 -755 -6 -104 0 -154 17 -154 6 0 10 12 10 28 0 45 19 99
45 131 14 16 23 36 19 44 -3 9 6 23 26 37 21 15 29 27 25 40 -4 13 3 25 25 40
22 16 29 27 25 43 -5 16 3 31 30 57 25 24 33 40 29 53 -4 14 5 31 32 58 32 33
37 42 27 57 -9 14 -4 24 29 58 33 35 38 45 30 60 -9 16 -4 26 30 60 35 36 38
44 29 63 -10 18 -6 27 28 64 37 40 39 45 26 64 -13 18 -10 23 30 63 42 41 43
44 28 66 -14 22 -13 26 25 70 39 46 40 48 24 72 -15 23 -15 25 3 39 12 8 30
11 46 8 33 -7 47 10 20 24 -46 25 -25 81 31 81 29 0 38 17 13 26 -20 8 -29 42
-15 59 7 8 28 15 46 15 19 0 34 2 34 5 0 3 -10 20 -22 36 l-23 31 24 19 c18
15 32 18 58 13 l35 -7 -17 26 c-9 14 -15 36 -13 49 2 18 9 23 33 22 17 0 38
-4 47 -8 15 -7 16 -3 11 28 -10 60 34 88 72 46 26 -29 35 -25 28 13 -3 23 0
39 10 49 35 35 156 29 235 -11 42 -22 77 -59 126 -136 18 -28 88 -99 166 -168
267 -235 371 -350 553 -616 327 -476 610 -897 610 -906 0 -8 -1449 -2337
-1667 -2679 -31 -50 -55 -93 -54 -98 5 -13 332 -217 340 -212 4 3 37 55 74
117 37 62 160 258 273 437 166 264 755 1208 1199 1923 47 75 88 137 91 137 3
-1 148 -210 321 -467 173 -256 503 -741 732 -1077 229 -336 474 -696 543 -799
70 -104 133 -191 140 -193 17 -7 325 205 325 223 0 7 -29 54 -64 105 -183 266
-1758 2588 -1758 2593 -1 7 400 655 585 945 156 246 223 328 448 551 141 140
219 225 243 265 67 115 128 155 247 162 90 5 113 -9 107 -65 -5 -40 5 -42 36
-7 19 23 25 25 43 15 28 -14 36 -42 24 -75 -12 -31 -12 -31 33 -9 29 13 38 14
51 3 20 -16 19 -40 -2 -69 l-16 -24 36 6 c27 4 42 1 59 -13 l23 -18 -22 -31
c-29 -39 -29 -45 2 -37 55 14 90 -45 45 -77 -23 -16 -16 -27 17 -27 32 0 63
-17 63 -35 0 -7 -11 -22 -25 -33 -14 -11 -25 -23 -25 -26 0 -3 20 -6 45 -6 51
0 64 -15 45 -50 -10 -19 -6 -27 30 -66 38 -42 40 -45 25 -67 -14 -22 -13 -25
30 -67 37 -36 42 -46 34 -63 -9 -16 -4 -26 29 -61 35 -36 38 -44 29 -64 -9
-20 -5 -27 31 -58 37 -32 40 -37 30 -59 -11 -26 -9 -29 61 -81 12 -9 13 -17 5
-35 -9 -19 -5 -27 29 -57 27 -25 37 -41 33 -55 -3 -13 6 -28 30 -49 23 -20 34
-39 34 -57 0 -18 9 -32 30 -46 20 -13 28 -26 24 -37 -3 -11 6 -25 26 -39 18
-14 28 -29 25 -37 -3 -8 6 -26 20 -40 24 -24 55 -105 55 -144 0 -33 19 -19 26
20 17 86 -36 328 -122 559 -20 54 -76 181 -124 283 -104 216 -127 284 -169
479 -49 230 -74 272 -320 524 -226 232 -442 413 -701 588 -69 46 -166 116
-217 156 -113 88 -124 94 -146 82z"/>
<path d="M3492 6200 c-165 -4 -205 -8 -212 -20 -13 -20 -13 -176 0 -201 10
-18 23 -19 169 -19 l158 0 7 -192 c3 -106 9 -356 12 -556 5 -276 10 -366 20
-376 17 -17 213 -10 232 9 11 10 12 100 3 526 -6 283 -11 532 -11 555 l0 41
157 6 c130 5 160 9 170 23 11 15 9 164 -3 202 -4 13 -273 14 -702 2z"/>
<path d="M5570 4315 c-36 -8 -106 -35 -155 -59 -321 -159 -470 -533 -351 -878
36 -104 82 -174 171 -263 192 -192 464 -252 728 -160 100 35 172 81 257 165
128 126 197 279 207 460 19 321 -178 613 -482 716 -100 33 -272 42 -375 19z
m340 -286 c120 -57 198 -145 241 -271 17 -51 20 -80 17 -158 -3 -81 -8 -105
-35 -163 -138 -293 -510 -357 -730 -124 -230 243 -123 636 202 744 25 8 76 12
135 10 86 -2 103 -6 170 -38z"/>
<path d="M1660 4235 c-97 -19 -172 -51 -255 -106 -185 -124 -300 -327 -312
-548 -12 -220 62 -408 221 -559 209 -198 523 -247 781 -122 101 49 195 123
195 154 0 14 -26 48 -73 94 -40 39 -76 72 -80 72 -4 0 -34 -18 -67 -41 -79
-54 -149 -80 -235 -86 -181 -14 -341 83 -423 255 -36 76 -37 79 -37 197 0 117
1 122 36 195 64 131 145 203 273 242 124 37 280 10 381 -68 25 -19 51 -34 59
-34 8 0 46 36 85 80 84 95 83 96 -13 165 -153 109 -345 149 -536 110z"/>
<path d="M6655 3246 c-67 -30 -112 -112 -100 -180 10 -50 67 -113 116 -126 78
-21 155 14 190 86 63 132 -74 279 -206 220z"/>
<path d="M3788 2470 c-149 -25 -267 -88 -383 -205 -74 -73 -99 -106 -133 -175
-54 -110 -74 -200 -75 -325 0 -190 70 -362 203 -494 86 -87 171 -140 285 -178
71 -24 95 -27 215 -27 120 0 144 3 216 27 121 40 284 153 284 197 0 16 -139
160 -154 160 -5 0 -35 -18 -67 -39 -200 -133 -427 -116 -579 45 -213 225 -148
595 129 732 72 35 79 37 175 37 114 -1 177 -20 266 -81 33 -22 57 -33 68 -29
25 10 142 141 142 159 0 33 -135 128 -236 166 -100 37 -242 49 -356 30z"/>
</g>
</svg>
